<svg viewBox="0 0 128 128" xmlns="http://www.w3.org/2000/svg" xmlns:xlink="http://www.w3.org/1999/xlink" width="128.000000" height="128.000000" fill="none" customFrame="#000000">
	<defs>
		<clipPath id="clipPath_1">
			<rect width="128.000000" height="128.000000" x="0.000000" y="0.000000" fill="rgb(255,255,255)" />
		</clipPath>
	</defs>
	<g id="组合 294">
		<g id="contact 1" clip-path="url(#clipPath_1)" customFrame="url(#clipPath_1)">
			<rect id="contact 1" width="128.000000" height="128.000000" x="0.000000" y="0.000000" />
			<path id="矢量 454" d="M37.507 0L90.493 0C115.498 0 128 12.5019 128 37.507L128 90.493C128 115.498 115.498 128 90.493 128L37.507 128C12.5019 128 0 115.497 0 90.493L0 37.507C0 12.5019 12.5019 0 37.507 0Z" opacity="0.150000006" fill="rgb(138,138,138)" fill-rule="nonzero" />
			<path id="矢量 455" d="M46.5943 54.4596C46.594 55.0299 46.6217 55.5988 46.6773 56.1664C46.733 56.7339 46.8163 57.2974 46.9273 57.8568C47.0383 58.4161 47.1765 58.9687 47.3418 59.5145C47.5072 60.0603 47.6989 60.5967 47.9169 61.1236C48.1349 61.6506 48.3783 62.1656 48.647 62.6686C48.9156 63.1716 49.2083 63.6603 49.525 64.1346C49.8417 64.6088 50.1808 65.0664 50.5425 65.5074C50.9042 65.9483 51.2866 66.3704 51.6897 66.7738C52.0929 67.1771 52.5148 67.5597 52.9556 67.9216C53.3963 68.2835 53.8538 68.6229 54.3279 68.9398C54.802 69.2567 55.2905 69.5496 55.7934 69.8186C56.2963 70.0875 56.8112 70.3311 57.338 70.5494C57.8649 70.7677 58.4012 70.9596 58.9469 71.1252C59.4926 71.2908 60.0451 71.4292 60.6044 71.5405C61.1637 71.6518 61.7272 71.7354 62.2947 71.7913C62.8622 71.8473 63.4311 71.8752 64.0014 71.8752C64.5717 71.8752 65.1406 71.8473 65.7082 71.7913C66.2757 71.7354 66.8391 71.6518 67.3984 71.5405C67.9577 71.4292 68.5103 71.2908 69.056 71.1252C69.6017 70.9596 70.138 70.7677 70.6648 70.5494C71.1917 70.3311 71.7065 70.0875 72.2094 69.8186C72.7123 69.5496 73.2008 69.2567 73.675 68.9398C74.1491 68.6229 74.6065 68.2835 75.0473 67.9216C75.488 67.5597 75.91 67.1771 76.3131 66.7738C76.7163 66.3704 77.0987 65.9483 77.4603 65.5074C77.822 65.0664 78.1612 64.6088 78.4779 64.1346C78.7946 63.6603 79.0872 63.1716 79.3559 62.6686C79.6246 62.1656 79.8679 61.6506 80.086 61.1236C80.304 60.5967 80.4957 60.0603 80.661 59.5145C80.8263 58.9687 80.9645 58.4161 81.0755 57.8568C81.1865 57.2974 81.2699 56.7339 81.3255 56.1664C81.3811 55.5988 81.4088 55.0299 81.4085 54.4596C81.4088 53.8893 81.3811 53.3204 81.3255 52.7528C81.2699 52.1853 81.1865 51.6218 81.0755 51.0624C80.9645 50.5031 80.8263 49.9505 80.661 49.4047C80.4957 48.8589 80.304 48.3225 80.086 47.7956C79.8679 47.2686 79.6246 46.7536 79.3559 46.2506C79.0872 45.7476 78.7946 45.2589 78.4779 44.7846C78.1612 44.3104 77.822 43.8528 77.4603 43.4118C77.0987 42.9709 76.7163 42.5488 76.3131 42.1454C75.91 41.7421 75.488 41.3594 75.0473 40.9976C74.6065 40.6357 74.1491 40.2963 73.675 39.9794C73.2008 39.6625 72.7123 39.3695 72.2094 39.1006C71.7065 38.8317 71.1917 38.5881 70.6648 38.3698C70.138 38.1515 69.6017 37.9596 69.056 37.794C68.5103 37.6284 67.9577 37.4899 67.3984 37.3787C66.8391 37.2674 66.2757 37.1838 65.7082 37.1278C65.1406 37.0719 64.5717 37.044 64.0014 37.044C63.4311 37.044 62.8622 37.0719 62.2947 37.1278C61.7272 37.1838 61.1637 37.2674 60.6044 37.3787C60.0451 37.4899 59.4926 37.6284 58.9469 37.794C58.4012 37.9596 57.8649 38.1515 57.338 38.3698C56.8112 38.5881 56.2963 38.8317 55.7934 39.1006C55.2905 39.3695 54.802 39.6625 54.3279 39.9794C53.8538 40.2963 53.3963 40.6357 52.9556 40.9976C52.5148 41.3594 52.0929 41.7421 51.6897 42.1454C51.2866 42.5488 50.9042 42.9709 50.5425 43.4118C50.1808 43.8528 49.8417 44.3104 49.525 44.7846C49.2083 45.2589 48.9156 45.7476 48.647 46.2506C48.3783 46.7536 48.1349 47.2686 47.9169 47.7956C47.6989 48.3225 47.5072 48.8589 47.3418 49.4047C47.1765 49.9505 47.0383 50.5031 46.9273 51.0624C46.8163 51.6218 46.733 52.1853 46.6773 52.7528C46.6217 53.3204 46.594 53.8893 46.5943 54.4596Z" fill="rgb(255,255,255)" fill-rule="nonzero" />
			<path id="矢量 456" d="M39.821 98.8228L89.6426 98.8228C90.4301 98.8228 91.0661 98.1682 91.029 97.3821C90.5888 87.8388 85.0675 79.6219 77.1079 75.3756C76.5419 75.074 75.8472 75.1612 75.3799 75.6C72.4299 78.3756 68.4565 80.0779 64.0858 80.0779C59.715 80.0779 56.1433 78.5443 53.2461 76.0116C53.1285 75.9086 52.9979 75.8261 52.8542 75.7641C52.7106 75.7022 52.561 75.6638 52.4053 75.6489C52.2496 75.634 52.0954 75.6434 51.9427 75.677C51.7899 75.7107 51.646 75.7669 51.511 75.8458C44.0088 80.2108 38.8605 88.1747 38.4332 97.3735C38.396 98.1625 39.0306 98.8214 39.821 98.8214L39.821 98.8228ZM40.537 48.7954C36.588 48.7954 33.3878 51.9955 33.3878 55.9446C33.3878 59.8937 36.588 63.0938 40.537 63.0938L40.537 48.7954ZM87.4629 63.0938C91.412 63.0938 94.6122 59.8937 94.6122 55.9446C94.6122 51.9955 91.412 48.7954 87.4629 48.7954L87.4629 63.0938L87.4629 63.0938Z" fill="rgb(255,255,255)" fill-rule="nonzero" />
			<path id="矢量 457" d="M83.0608 70.2374L81.4628 67.9705C82.7178 67.0858 83.9083 65.0305 84.9031 62.0262C88.6464 50.7278 83.158 38.316 72.4084 33.7694C69.557 32.5631 66.5284 31.9514 63.404 31.9514C50.6477 31.9514 40.2698 42.3294 40.2698 55.0856L37.4955 55.0856C37.4955 40.8 49.1184 29.1772 63.404 29.1772C66.9014 29.1772 70.2945 29.8618 73.4889 31.2139C79.399 33.7137 84.0841 38.3531 86.684 44.2789C89.2638 50.1575 89.5654 56.7707 87.5358 62.8995C86.3352 66.5227 84.8302 68.991 83.0608 70.2388L83.0608 70.2374Z" fill="rgb(255,255,255)" fill-rule="nonzero" />
			<path id="矢量 458" d="M78.3585 70.4389C78.3585 70.621 78.3762 70.8014 78.4118 70.9801C78.4473 71.1587 78.4999 71.3322 78.5696 71.5005C78.6393 71.6688 78.7248 71.8287 78.826 71.9801C78.9272 72.1316 79.0422 72.2717 79.171 72.4005C79.2998 72.5293 79.4399 72.6443 79.5914 72.7455C79.7429 72.8467 79.9027 72.9322 80.071 73.0019C80.2393 73.0716 80.4128 73.1242 80.5915 73.1598C80.7701 73.1953 80.9505 73.2131 81.1327 73.2131C81.3148 73.2131 81.4952 73.1953 81.6739 73.1598C81.8526 73.1242 82.026 73.0716 82.1943 73.0019C82.3626 72.9322 82.5225 72.8467 82.674 72.7455C82.8254 72.6443 82.9655 72.5293 83.0943 72.4005C83.2232 72.2717 83.3382 72.1316 83.4394 71.9801C83.5406 71.8287 83.626 71.6688 83.6957 71.5005C83.7654 71.3322 83.8181 71.1587 83.8536 70.9801C83.8891 70.8014 83.9069 70.621 83.9069 70.4389C83.9069 70.2567 83.8891 70.0763 83.8536 69.8976C83.8181 69.719 83.7654 69.5455 83.6957 69.3772C83.626 69.2089 83.5406 69.049 83.4394 68.8976C83.3382 68.7461 83.2232 68.606 83.0943 68.4772C82.9655 68.3484 82.8254 68.2334 82.674 68.1322C82.5225 68.031 82.3626 67.9455 82.1943 67.8758C82.026 67.8061 81.8526 67.7535 81.6739 67.7179C81.4952 67.6824 81.3148 67.6646 81.1327 67.6646C80.9505 67.6646 80.7701 67.6824 80.5915 67.7179C80.4128 67.7535 80.2393 67.8061 80.071 67.8758C79.9027 67.9455 79.7429 68.031 79.5914 68.1322C79.4399 68.2334 79.2998 68.3484 79.171 68.4772C79.0422 68.606 78.9272 68.7461 78.826 68.8976C78.7248 69.049 78.6393 69.2089 78.5696 69.3772C78.4999 69.5455 78.4473 69.719 78.4118 69.8976C78.3762 70.0763 78.3585 70.2567 78.3585 70.4389Z" fill="rgb(255,255,255)" fill-rule="nonzero" />
			<path id="矢量 459" d="M64 69.0525C60.0581 69.0525 56.9694 66.707 56.9694 63.7113C56.9694 62.9452 57.5912 62.3235 58.3572 62.3235C59.1233 62.3235 59.7451 62.9452 59.7451 63.7113C59.7451 64.9247 61.4931 66.2783 64 66.2783C66.507 66.2783 68.2564 64.9262 68.2564 63.7113C68.2564 62.9452 68.8781 62.3235 69.6442 62.3235C70.4103 62.3235 71.032 62.9452 71.032 63.7113C71.032 66.7056 67.9434 69.0525 64.0014 69.0525L64 69.0525Z" fill="rgb(224,224,224)" fill-rule="nonzero" />
		</g>
	</g>
</svg>
