<svg viewBox="0 0 128 128" xmlns="http://www.w3.org/2000/svg" xmlns:xlink="http://www.w3.org/1999/xlink" width="128.000000" height="128.000000" fill="none" customFrame="#000000">
	<g id="组合 291">
		<path id="矢量 454" d="M37.507 0L90.493 0C115.498 0 128 12.5019 128 37.507L128 90.493C128 115.498 115.498 128 90.493 128L37.507 128C12.5019 128 0 115.497 0 90.493L0 37.507C0 12.5019 12.5019 0 37.507 0Z" opacity="0.150000006" fill="rgb(138,138,138)" fill-rule="nonzero" />
		<path id="矢量 465" d="M29.6071 70.16C31.9271 64.64 35.1671 60.56 37.5671 59.68C37.5271 56.48 38.1271 54.48 39.1271 52.88C39.1271 52.76 38.8871 51.44 39.7671 49.8C40.3671 35.4 49.7271 24 64.8871 24C80.0471 24 89.4071 35.4 90.0071 49.8C90.8871 51.44 90.6471 52.76 90.6471 52.88C91.6471 54.48 92.2471 56.48 92.2071 59.68C94.6071 60.56 97.8471 64.64 100.167 70.2C103.167 77.24 103.647 84 101.247 85.2C99.6071 86 97.0071 84 94.5671 80.48C93.6071 84.4 91.2071 88 87.8071 90.84C91.4071 92.16 93.7271 94.32 93.7271 96.76C93.7271 100.76 87.4071 104 79.6471 104C72.6071 104 66.8871 101.36 65.7271 98L64.0471 98C62.8871 101.36 57.1671 104 50.1271 104C42.3671 104 36.0471 100.76 36.0471 96.76C36.0471 94.32 38.3671 92.16 41.9671 90.84C38.5671 88 36.1671 84.4 35.2071 80.48C32.7671 84 30.1671 86 28.5271 85.2C26.1271 84 26.6071 77.24 29.6071 70.16L29.6071 70.16Z" fill="rgb(255,255,255)" fill-rule="nonzero" />
	</g>
</svg>
