<svg xmlns="http://www.w3.org/2000/svg" fill="none" viewBox="0 0 70 70"><path fill="#409EFF" fill-rule="evenodd" d="M61 48c0 2.5-1.3 3-1.3 3s-22.5 13-24 13.7c-1.4.6-2.4 0-2.4 0S9.7 51.2 8.9 50.6C8 50 8 49 8 49V21c0-1.2 1.5-2.2 1.5-2.2L33.1 5.3c1.4-.7 2.8 0 2.8 0L59 18.6c2.3 1 2 3.3 2 3.3v26Zm-9.4-27-16.2-9.2s-1-.6-2.2 0L14.7 22.3s-1.2.8-1.2 1.7v22s0 .7.7 1.2l19.2 11s.7.5 1.9 0L54 47.6s1-.4 1-2.3v-5.5L34.3 52.2v-4.8c0-2 1.5-3.3 1.5-3.3l18.4-11c.7-.7.9-1.8 1-2.3V26L34.2 38.5v-5c0-2 1.3-2.9 1.3-2.9l16-9.5Z" clip-rule="evenodd"/></svg>