<svg xmlns="http://www.w3.org/2000/svg" fill="none" viewBox="0 0 70 70"><path fill="url(#paint0_linear_3209_1054)" d="M64.4 13.8 37 62.7c-.5 1-2 1-2.6 0L6.6 13.8c-.7-1 .3-2.4 1.5-2.2l27.4 5h.5l26.8-5c1.2-.2 2.2 1.1 1.6 2.2Z"/><path fill="url(#paint1_linear_3209_1054)" d="m48.5 5.2-20.2 4c-.3 0-.6.3-.6.7l-1.3 21c0 .5.5.9 1 .8l5.6-1.3c.5-.2 1 .3.9.8l-1.7 8.2c-.1.6.4 1 1 .9l3.4-1c.6-.2 1 .2 1 .8L34.9 53c-.2.8 1 1.2 1.4.5l.3-.5L53 20.2a.7.7 0 0 0-.8-1.1l-5.8 1.1c-.5.1-1-.4-.8-1l3.8-13c.1-.6-.3-1-.9-1Z"/><defs><linearGradient id="paint0_linear_3209_1054" x1="5.9" x2="39.9" y1="9.9" y2="56.1" gradientUnits="userSpaceOnUse"><stop stop-color="#41D1FF"/><stop offset="1" stop-color="#BD34FE"/></linearGradient><linearGradient id="paint1_linear_3209_1054" x1="33.9" x2="40.1" y1="6.3" y2="48.5" gradientUnits="userSpaceOnUse"><stop stop-color="#FFEA83"/><stop offset=".1" stop-color="#FFDD35"/><stop offset="1" stop-color="#FFA800"/></linearGradient></defs></svg>