<svg viewBox="0 0 728 225.091" xmlns="http://www.w3.org/2000/svg" xmlns:xlink="http://www.w3.org/1999/xlink" width="728.000000" height="225.091309" fill="none" customFrame="#000000">
	<defs>
		<linearGradient id="paint_linear_4" x1="47.2496109" x2="180.987061" y1="164.64267" y2="50.1556778" gradientUnits="userSpaceOnUse">
			<stop stop-color="rgb(33,123,254)" offset="0" stop-opacity="1" />
			<stop stop-color="rgb(7,142,251)" offset="0.270000011" stop-opacity="1" />
			<stop stop-color="rgb(161,144,255)" offset="0.77700001" stop-opacity="1" />
			<stop stop-color="rgb(189,153,254)" offset="1" stop-opacity="1" />
		</linearGradient>
		<linearGradient id="paint_linear_5" x1="46.6094627" x2="180.099304" y1="163.539948" y2="48.3893356" gradientUnits="userSpaceOnUse">
			<stop stop-color="rgb(33,123,254)" offset="0" stop-opacity="1" />
			<stop stop-color="rgb(7,142,251)" offset="0.270000011" stop-opacity="1" />
			<stop stop-color="rgb(161,144,255)" offset="0.77700001" stop-opacity="1" />
			<stop stop-color="rgb(189,153,254)" offset="1" stop-opacity="1" />
		</linearGradient>
		<linearGradient id="paint_linear_6" x1="609.233276" x2="494.670441" y1="139.297241" y2="354.782684" gradientUnits="userSpaceOnUse">
			<stop stop-color="rgb(32,117,255)" offset="0" stop-opacity="1" />
			<stop stop-color="rgb(117.5,135,254.5)" offset="0.494790643" stop-opacity="1" />
			<stop stop-color="rgb(37,170,251)" offset="0.837222993" stop-opacity="1" />
		</linearGradient>
	</defs>
	<g id="组合 320">
		<g id="组合 316">
			<path id="矢量 480" d="M194.697 113.391C181.309 115.488 168.548 114.928 155.99 111.845C143.393 108.606 131.895 103.304 121.812 96.0977C111.729 88.8919 103.043 79.7566 96.0087 68.9805C89.1374 58.1785 84.6365 46.3899 82.5094 33.2169C82.4987 33.149 82.4691 33.0846 82.4262 33.031C82.3824 32.9783 82.3234 32.9371 82.2598 32.9121C82.1937 32.888 82.1221 32.8808 82.055 32.8916C81.9879 32.9014 81.9244 32.9291 81.8725 32.9711C81.8198 33.0131 81.7795 33.0676 81.7554 33.1302C81.7321 33.1918 81.725 33.2589 81.7357 33.325C83.8618 46.498 83.2143 59.0927 79.9226 71.4864C76.7946 83.8685 71.4931 95.1808 64.1781 105.112C56.8614 115.044 47.5866 123.598 36.6455 130.526C25.6793 137.294 13.7095 141.728 0.32103 143.825C0.12067 143.87 -0.0278089 144.071 0.00440165 144.271C0.0383865 144.485 0.241425 144.617 0.444481 144.586C13.8195 142.49 26.6068 143.128 39.2036 146.37C51.7736 149.449 63.2595 154.67 73.3429 161.877C83.4289 169.095 92.031 178.23 98.9033 189.046C105.938 199.822 110.518 211.585 112.647 224.771C112.658 224.837 112.685 224.899 112.728 224.951C112.77 225.002 112.826 225.042 112.889 225.066C112.952 225.09 113.02 225.097 113.087 225.086C113.153 225.077 113.217 225.048 113.269 225.006C113.321 224.964 113.361 224.91 113.386 224.848C113.41 224.785 113.417 224.717 113.406 224.652C111.277 211.466 111.845 198.896 114.974 186.528C118.266 174.121 123.648 162.796 130.961 152.851C138.278 142.92 147.552 134.447 158.532 127.677C169.473 120.75 181.429 116.235 194.804 114.141C195.02 114.106 195.155 113.908 195.123 113.707C195.114 113.643 195.088 113.581 195.048 113.529C195.007 113.477 194.954 113.437 194.892 113.413C194.83 113.388 194.762 113.382 194.697 113.391Z" fill="url(#paint_linear_4)" fill-rule="evenodd" />
			<path id="矢量 481" d="M144.617 25.4201C141.283 25.1777 138.252 24.3366 135.415 22.9065C132.578 21.4364 130.122 19.5359 128.116 17.2611C126.111 14.9855 124.552 12.3276 123.484 9.37032C122.457 6.41662 122.055 3.35867 122.302 0.10292C122.304 0.085993 122.301 0.0690663 122.293 0.0539156C122.286 0.0387648 122.273 0.025407 122.261 0.0164933C122.246 0.0066959 122.229 0.00134258 122.211 0.000458856C122.196 -0.00132558 122.179 0.0022348 122.164 0.00847184C122.149 0.0156011 122.136 0.027183 122.127 0.0405493C122.117 0.0539156 122.112 0.0690663 122.111 0.0851008C121.862 3.34175 120.981 6.30614 119.479 9.07539C118.014 11.8518 116.091 14.2522 113.762 16.2124C111.433 18.1726 108.715 19.6971 105.69 20.7405C102.667 21.7447 99.5381 22.1376 96.2042 21.8944C96.153 21.8944 96.1062 21.9336 96.1026 21.9835C96.0981 22.036 96.1386 22.0788 96.1898 22.0832C99.521 22.3256 102.554 23.1863 105.392 24.6565C108.231 26.0866 110.688 27.9675 112.694 30.2431C114.699 32.5214 116.238 35.1749 117.266 38.1312C118.333 41.0885 118.755 44.1447 118.508 47.404C118.506 47.42 118.509 47.4361 118.516 47.4512C118.523 47.4655 118.534 47.4779 118.548 47.4868C118.562 47.4966 118.578 47.502 118.595 47.5029C118.612 47.5038 118.628 47.5011 118.643 47.494C118.659 47.4868 118.671 47.4762 118.681 47.4628C118.69 47.4494 118.696 47.4334 118.697 47.4173C118.945 44.158 119.805 41.1954 121.269 38.4226C122.773 35.6498 124.717 33.2503 127.044 31.2865C129.373 29.3263 132.087 27.8222 135.113 26.8181C138.138 25.7747 141.268 25.3622 144.599 25.6045C144.653 25.6081 144.697 25.5689 144.701 25.519C144.703 25.503 144.7 25.4869 144.693 25.4727C144.687 25.4584 144.676 25.445 144.663 25.4361C144.649 25.4272 144.633 25.421 144.617 25.4201L144.617 25.4201Z" fill="url(#paint_linear_5)" fill-rule="evenodd" />
		</g>
		<path id="" d="M363.312 52.0073Q365.626 52.0073 365.626 54.3218L365.626 67.4756Q365.626 69.79 363.312 69.79L228.688 69.79Q226.374 69.79 226.374 67.4756L226.374 54.3218Q226.374 52.0073 228.688 52.0073L363.312 52.0073ZM330.948 40.5122Q333.34 40.5122 333.34 42.9038L333.34 80.5908Q333.34 82.9824 330.948 82.9824L317.37 82.9824Q314.979 82.9824 314.979 80.5908L314.979 42.9038Q314.979 40.5122 317.37 40.5122L330.948 40.5122ZM274.63 40.5122Q277.021 40.5122 277.021 42.9038L277.021 80.5908Q277.021 82.9824 274.63 82.9824L261.052 82.9824Q258.66 82.9824 258.66 80.5908L258.66 42.9038Q258.66 40.5122 261.052 40.5122L274.63 40.5122ZM355.443 89.1157Q358.104 89.1157 359.377 89.8486Q360.65 90.5815 360.149 91.9702Q359.647 93.3589 357.526 95.0176L270.31 164.413L349.695 164.413L349.695 153.11Q349.695 150.719 352.125 150.719L365.704 150.719Q368.095 150.719 368.095 153.11L368.095 178.376Q368.095 182.62 363.852 182.62L227.994 182.62Q225.139 182.62 223.75 181.887Q222.4 181.154 222.902 179.727Q223.442 178.299 225.679 176.525L312.664 107.323L239.643 107.323Q237.251 107.323 237.251 104.931L237.251 91.5073Q237.251 89.1157 239.643 89.1157L355.443 89.1157ZM521.736 40.0493Q524.167 40.0493 524.167 42.4795L524.167 179.302Q524.167 183.777 519.692 183.777L490.414 183.777Q487.83 183.777 487.83 181.192L487.83 166.418Q487.83 163.834 490.414 163.834L505.458 163.834L505.458 42.4795Q505.458 40.0493 507.888 40.0493L521.736 40.0493ZM487.714 52.2002Q490.105 52.2002 490.105 54.6304L490.105 148.443Q490.105 150.873 487.714 150.873L474.097 150.873Q471.706 150.873 471.706 148.443L471.706 54.6304Q471.706 52.2002 474.097 52.2002L487.714 52.2002ZM452.418 90.3501Q454.463 90.3501 455.543 91.4302Q456.623 92.4717 456.623 94.5547L456.623 143.351Q456.623 145.396 455.543 146.476Q454.501 147.556 452.418 147.556L429.312 147.556Q426.921 147.556 426.921 145.203L426.921 131.817Q426.921 129.464 429.312 129.464L438.223 129.464L438.223 108.441L410.257 108.441L410.257 165.647L447.095 165.647L447.095 154.962Q447.095 152.57 449.487 152.57L463.104 152.57Q465.495 152.57 465.495 154.962L465.495 179.534Q465.495 181.578 464.415 182.658Q463.374 183.738 461.252 183.738L396.062 183.738Q394.017 183.738 392.937 182.658Q391.857 181.617 391.857 179.534L391.857 94.5547Q391.857 92.5103 392.898 91.4302Q393.979 90.3501 396.062 90.3501L452.418 90.3501ZM437.876 40.4351Q440.306 40.5508 441.386 42.7495Q446.671 55.6333 454.077 66.6655Q461.483 77.6978 470.741 86.7241Q472.477 88.3828 470.896 90.0029L461.522 99.8394Q459.979 101.459 458.282 99.6851Q449.487 91.1602 441.849 80.7065Q434.25 70.2144 428.502 58.4878L419.823 58.4878Q413.729 70.6772 405.975 81.5166Q398.222 92.3174 389.928 99.8394Q389.08 100.688 388.231 100.765Q387.421 100.804 386.611 99.8779L377.546 89.8872Q376.042 88.2285 377.739 86.5312Q387.189 77.3892 394.557 66.2026Q401.963 55.0161 407.171 42.5181Q407.75 41.438 408.521 41.0137Q409.292 40.5508 410.565 40.4351L437.876 40.4351Z" fill="url(#paint_linear_6)" fill-rule="nonzero" />
		<g id="组合 309">
			<path id="矢量 465" d="M533 182L625.989 44L626.288 44L650.681 182L627.563 182L622.957 153.975L576.851 153.975L558.208 182L533 182ZM589.773 134.618L619.627 134.618L616.787 117.518C616.172 113.943 615.628 110.472 615.156 107.105C614.686 103.738 614.401 99.7821 614.302 95.2387C612.081 99.7111 609.933 103.642 607.858 107.031C605.784 110.42 603.528 113.916 601.091 117.518L589.773 134.618ZM669.498 182L703.131 48.66L728 48.66L694.368 182L669.498 182Z" fill="rgb(15,23,43)" fill-rule="nonzero" />
		</g>
	</g>
</svg>
