<svg viewBox="0 0 128 128" xmlns="http://www.w3.org/2000/svg" xmlns:xlink="http://www.w3.org/1999/xlink" width="128.000000" height="128.000000" fill="none" customFrame="#000000">
	<g id="组合 293">
		<path id="矢量 454" d="M37.507 0L90.493 0C115.498 0 128 12.5019 128 37.507L128 90.493C128 115.498 115.498 128 90.493 128L37.507 128C12.5019 128 0 115.497 0 90.493L0 37.507C0 12.5019 12.5019 0 37.507 0Z" opacity="0.150000006" fill="rgb(138,138,138)" fill-rule="nonzero" />
		<g id="组合 292">
			<path id="矢量 466" d="M96.711 43.5478L65.2891 25.3477C64.4943 24.8841 63.5059 24.8841 62.7109 25.3477L31.2891 43.5478C30.4942 44.0115 30 44.8632 30 45.7906L30 82.2014C30 83.1286 30.4942 83.9804 31.2891 84.4441L62.7109 102.655C63.1085 102.881 63.5596 103 64 103C64.4404 103 64.8916 102.881 65.2891 102.655L96.7109 84.4441C97.5058 83.9804 98 83.1287 98 82.2014L98 45.7906C98 44.8633 97.5058 44.0115 96.7109 43.5478L96.711 43.5478ZM92.8437 80.7135L64.0001 97.4256L35.1565 80.7135L35.1565 47.2892L64.0001 30.5771L92.8437 47.2892L92.8437 80.7135L92.8437 80.7135Z" fill="rgb(255,255,255)" fill-rule="nonzero" />
			<path id="矢量 467" d="M42.5043 52.4753C41.7953 53.7153 42.2143 55.3002 43.4498 56.0118L61.3898 66.4057L61.3898 86.967C61.3898 88.4011 62.5392 89.5547 63.968 89.5547C65.3967 89.5547 66.5462 88.401 66.5462 86.967L66.5462 66.438L84.5506 56.0011C85.786 55.2895 86.2049 53.7044 85.496 52.4646C84.7871 51.2247 83.2078 50.8041 81.9725 51.5157L64.0003 61.931L46.0281 51.5157C44.7926 50.804 43.2242 51.2354 42.5045 52.4752L42.5043 52.4753Z" fill="rgb(255,255,255)" fill-rule="nonzero" />
		</g>
	</g>
</svg>
