<svg viewBox="0 0 114 38" xmlns="http://www.w3.org/2000/svg" xmlns:xlink="http://www.w3.org/1999/xlink" width="114.000000" height="38.000000" fill="none" customFrame="#000000">
	<defs>
		<linearGradient id="paint_linear_69" x1="97.7759933" x2="97.7220917" y1="29.9575748" y2="7.63179207" gradientUnits="userSpaceOnUse">
			<stop stop-color="rgb(0,0,0)" offset="0" stop-opacity="1" />
			<stop stop-color="rgb(0,0,0)" offset="1" stop-opacity="0.789999962" />
		</linearGradient>
		<linearGradient id="paint_linear_70" x1="68.5988159" x2="47.6844482" y1="34.0022049" y2="13.4871407" gradientUnits="userSpaceOnUse">
			<stop stop-color="rgb(0,85,255)" offset="1.06811524e-06" stop-opacity="1" />
			<stop stop-color="rgb(77,107,254)" offset="1" stop-opacity="1" />
		</linearGradient>
		<linearGradient id="paint_linear_71" x1="14.6061144" x2="1.261446" y1="5.62508821" y2="10.998106" gradientUnits="userSpaceOnUse">
			<stop stop-color="rgb(235,162,255)" offset="0" stop-opacity="1" />
			<stop stop-color="rgb(120,129,250)" offset="1" stop-opacity="1" />
		</linearGradient>
		<linearGradient id="paint_linear_72" x1="13.125452" x2="5.91982651" y1="-0.00891041756" y2="20.1375046" gradientUnits="userSpaceOnUse">
			<stop stop-color="rgb(30,125,255)" offset="0.0917702988" stop-opacity="1" />
			<stop stop-color="rgb(145,174,253)" offset="0.821060002" stop-opacity="1" />
		</linearGradient>
		<linearGradient id="paint_linear_73" x1="10.249939" x2="3.94578552" y1="21.590168" y2="4.96795464" gradientUnits="userSpaceOnUse">
			<stop stop-color="rgb(0,85,255)" offset="1.06811524e-06" stop-opacity="1" />
			<stop stop-color="rgb(77,107,254)" offset="1" stop-opacity="1" />
		</linearGradient>
		<linearGradient id="paint_linear_74" x1="-0.0378730297" x2="7.92326212" y1="-3.69332623" y2="2.26279163" gradientUnits="userSpaceOnUse">
			<stop stop-color="rgb(225,223,253)" offset="0" stop-opacity="1" />
			<stop stop-color="rgb(163,178,252)" offset="1" stop-opacity="1" />
		</linearGradient>
		<linearGradient id="paint_linear_75" x1="4.18166971" x2="14.4741802" y1="2.02624011" y2="15.3198719" gradientUnits="userSpaceOnUse">
			<stop stop-color="rgb(255,216,186)" offset="0" stop-opacity="1" />
			<stop stop-color="rgb(233,132,252)" offset="1" stop-opacity="1" />
		</linearGradient>
		<linearGradient id="paint_linear_76" x1="23.3160992" x2="14.8559246" y1="8.30649853" y2="22.0524578" gradientUnits="userSpaceOnUse">
			<stop stop-color="rgb(32,117,255)" offset="0" stop-opacity="1" />
			<stop stop-color="rgb(255,232,216)" offset="0.837222993" stop-opacity="1" />
		</linearGradient>
		<linearGradient id="paint_linear_77" x1="13.1820984" x2="5.07452393" y1="15.1596441" y2="3.48827457" gradientUnits="userSpaceOnUse">
			<stop stop-color="rgb(0,85,255)" offset="1.06811524e-06" stop-opacity="1" />
			<stop stop-color="rgb(77,107,254)" offset="1" stop-opacity="1" />
		</linearGradient>
		<linearGradient id="paint_linear_78" x1="-0.0718240738" x2="0.421718597" y1="-2.45886707" y2="6.07448339" gradientUnits="userSpaceOnUse">
			<stop stop-color="rgb(225,223,253)" offset="0" stop-opacity="1" />
			<stop stop-color="rgb(163,178,252)" offset="1" stop-opacity="1" />
		</linearGradient>
		<linearGradient id="paint_linear_79" x1="9.41735077" x2="2.57714462" y1="-0.0568614006" y2="16.4377995" gradientUnits="userSpaceOnUse">
			<stop stop-color="rgb(68,112,255)" offset="0" stop-opacity="1" />
			<stop stop-color="rgb(130,130,255)" offset="0.983952999" stop-opacity="1" />
		</linearGradient>
		<linearGradient id="paint_linear_80" x1="9.46670532" x2="3.64428711" y1="21.9576111" y2="5.05250549" gradientUnits="userSpaceOnUse">
			<stop stop-color="rgb(0,85,255)" offset="1.06811524e-06" stop-opacity="1" />
			<stop stop-color="rgb(77,107,254)" offset="1" stop-opacity="1" />
		</linearGradient>
		<linearGradient id="paint_linear_81" x1="0.0211037546" x2="0.0180648249" y1="-0.00352907297" y2="0.0215622131" gradientUnits="userSpaceOnUse">
			<stop stop-color="rgb(225,223,254)" offset="0" stop-opacity="1" />
			<stop stop-color="rgb(163,179,253)" offset="1" stop-opacity="1" />
		</linearGradient>
		<linearGradient id="paint_linear_82" x1="4.45057201" x2="0.299381256" y1="-1.26277161" y2="5.78651047" gradientUnits="userSpaceOnUse">
			<stop stop-color="rgb(225,223,254)" offset="0" stop-opacity="1" />
			<stop stop-color="rgb(163,179,253)" offset="1" stop-opacity="1" />
		</linearGradient>
	</defs>
	<g id="组合 286">
		<g id="组合 285">
			<g id="组合 276">
				<path id="矢量 437" d="M84.4237 29.9435L96.2068 7.1897L107.99 29.9444L102.996 29.9444L101.065 26.2142L95.2986 26.2142L93.3118 22.4232L89.4173 29.9435L84.4237 29.9435ZM109.73 7.50795L114 7.50795L114 29.7853L109.73 29.7853L109.73 7.50795ZM96.2068 16.8335L93.5861 21.8942L98.8283 21.8942L96.2068 16.8335Z" fill="url(#paint_linear_69)" fill-rule="evenodd" />
				<path id="矢量 436" d="M83.0507 7.40479C83.0507 7.37207 83.0344 7.35571 83.0019 7.35571L80.0973 7.35571C80.0647 7.35571 80.0485 7.37207 80.0485 7.40479L80.0485 27.0053L77.3025 27.0053Q77.272 27.0053 77.2584 27.0204Q77.2476 27.0326 77.2476 27.0543L77.2476 30.1708Q77.2476 30.1985 77.2615 30.2124Q77.2752 30.226 77.3025 30.226L83.0019 30.226C83.0344 30.226 83.0507 30.2076 83.0507 30.1708L83.0507 7.40479ZM69.8031 7.46C69.7868 7.44364 69.7624 7.42524 69.7299 7.40479L64.7017 7.40479C64.6855 7.42524 64.6733 7.43546 64.6651 7.43546C64.657 7.43546 64.6448 7.44364 64.6285 7.46C64.0102 8.96506 63.2881 10.3433 62.4623 11.5948Q61.3765 13.2431 60.0065 14.6057Q59.8213 14.7899 59.6309 14.9689C59.5984 14.9853 59.5902 15.0037 59.6065 15.0241L61.5043 17.1345C61.5205 17.1508 61.5327 17.1549 61.5409 17.1468C61.549 17.1386 61.5612 17.1243 61.5775 17.1038Q61.831 16.8711 62.0779 16.6273L62.0779 30.1708C62.0779 30.1872 62.0819 30.1994 62.0901 30.2076C62.0982 30.2199 62.1104 30.226 62.1267 30.226L73.7023 30.226C73.7186 30.226 73.7308 30.2199 73.7389 30.2076C73.7471 30.1994 73.7511 30.1872 73.7511 30.1708L73.7511 25.2998C73.7511 25.2671 73.7348 25.2507 73.7023 25.2507L70.8526 25.2507C70.8201 25.2507 70.8038 25.2671 70.8038 25.2998L70.8038 27.3059L65.0313 27.3059L65.0313 18.2633L69.4003 18.2633L69.4003 21.5515L67.6796 21.5515Q67.6522 21.5515 67.6385 21.5651Q67.6246 21.579 67.6246 21.6067L67.6246 24.4164Q67.6246 24.4442 67.6385 24.458Q67.6522 24.4716 67.6796 24.4716L72.2988 24.4716C72.3192 24.4716 72.3334 24.4675 72.3415 24.4594C72.3497 24.4512 72.3537 24.4369 72.3537 24.4164L72.3537 16.6417Q72.5742 16.8646 72.7992 17.0793C72.8358 17.1161 72.8623 17.1243 72.8785 17.1038L74.703 15.1775L74.703 24.9195C74.703 24.9563 74.7193 24.9747 74.7519 24.9747L77.6015 24.9747C77.6341 24.9747 77.6503 24.9563 77.6503 24.9195L77.6503 9.34337C77.6503 9.31065 77.6341 9.29429 77.6015 9.29429L74.7519 9.29429C74.7193 9.29429 74.703 9.31065 74.703 9.34337L74.703 14.8991C73.6609 13.8856 72.7354 12.7739 71.9266 11.5641C71.0927 10.3167 70.3848 8.9487 69.8031 7.46ZM71.1702 15.3493Q70.6142 14.6943 70.0899 13.9812C69.2478 12.832 68.5094 11.6132 67.8748 10.3249L66.5263 10.3249Q65.556 12.2819 64.3051 14.018Q63.8019 14.7139 63.2622 15.3493L71.1702 15.3493ZM43.9059 7.43546Q43.9364 7.43546 43.95 7.45064L43.95 7.45064Q43.9608 7.46275 43.9608 7.48454L43.9608 9.23908L49.9042 9.23908L49.9042 7.48454Q49.9042 7.46275 49.915 7.45064Q49.9286 7.43546 49.9591 7.43546L52.8088 7.43546Q52.8331 7.43546 52.8453 7.4476L52.8453 7.44761Q52.8576 7.45988 52.8576 7.48454L52.8576 9.23908L57.904 9.23908C57.9366 9.23908 57.9529 9.25748 57.9529 9.29429L57.9529 12.0549Q57.9529 12.0796 57.9405 12.0919Q57.9283 12.104 57.904 12.104L52.8576 12.104L52.8576 14.1407Q52.8576 14.1654 52.8453 14.1777Q52.8331 14.1898 52.8088 14.1898L49.9591 14.1898Q49.9286 14.1898 49.915 14.1746Q49.9042 14.1625 49.9042 14.1407L49.9042 12.104L43.9608 12.104L43.9608 14.1407Q43.9608 14.1625 43.95 14.1746Q43.9364 14.1898 43.9059 14.1898L41.0562 14.1898Q41.0319 14.1898 41.0197 14.1777Q41.0074 14.1654 41.0074 14.1407L41.0074 12.104L35.961 12.104Q35.9367 12.104 35.9245 12.0919Q35.9122 12.0796 35.9122 12.0549L35.9122 9.29429Q35.9122 9.2633 35.9275 9.24971Q35.9396 9.23908 35.961 9.23908L41.0074 9.23908L41.0074 7.48454Q41.0074 7.45987 41.0197 7.4476Q41.0319 7.43546 41.0562 7.43546L43.9059 7.43546ZM37.6818 15.1468L57.843 15.1468Q57.8479 15.1468 57.8489 15.1488Q57.8503 15.1517 57.843 15.1591L57.8308 15.1714L42.9601 27.1096L55.4083 27.1096L55.4083 24.9992C55.4083 24.9624 55.4246 24.944 55.4571 24.944L58.3068 24.944C58.3393 24.944 58.3556 24.9624 58.3556 24.9992L58.3556 29.999Q58.3556 30.0237 58.3433 30.036Q58.3311 30.0481 58.3068 30.0481L34.6002 30.0481C34.5921 30.0481 34.5921 30.044 34.6002 30.0358L34.6124 30.0236L49.4832 18.0854L37.6818 18.0854Q37.6575 18.0854 37.6453 18.0732Q37.6329 18.061 37.6329 18.0363L37.6329 15.1959C37.6329 15.1632 37.6492 15.1468 37.6818 15.1468Z" fill="url(#paint_linear_70)" fill-rule="evenodd" />
			</g>
			<g id="组合 275">
				<path id="矢量 422" d="M8.91298 18.4822L12.7221 16.2893C13.8883 15.6178 14.6061 14.3764 14.6061 13.0334L14.6061 1.99961C14.6061 1.76298 14.5825 1.53006 14.539 1.3021C14.539 1.3021 14.4161 0.590967 14.0273 0C14.0273 0.00124041 14.0286 0.00370984 14.0298 0.00495025C14.2534 0.540169 14.3452 1.12369 14.3068 1.70227C14.2733 2.20775 14.1454 2.80739 13.856 3.48007C13.7305 3.74897 13.4374 4.27424 12.881 4.81943C10.6331 6.89458 4.34141 10.646 0.182102 13.0359C-0.0613282 13.1759 -0.0600727 13.524 0.182102 13.6641L8.54909 18.4822C8.66214 18.5466 8.80119 18.5466 8.91298 18.4822Z" fill="url(#paint_linear_71)" fill-rule="nonzero" transform="matrix(0.49805,-0.867148,0.864895,0.501953,12.3127,16.3171)" />
				<path id="矢量 423" d="M8.91298 18.4822L12.7221 16.2893C13.8883 15.6178 14.6061 14.3764 14.6061 13.0334L14.6061 1.99961C14.6061 1.76298 14.5825 1.53006 14.539 1.3021C14.539 1.3021 14.4161 0.590967 14.0273 0C14.0273 0.00124041 14.0286 0.00370984 14.0298 0.00495025C14.2534 0.540169 14.3452 1.12369 14.3068 1.70227C14.2733 2.20775 14.1454 2.80739 13.856 3.48007C13.7305 3.74897 13.4374 4.27424 12.881 4.81943C10.6331 6.89458 4.34141 10.646 0.182102 13.0359C-0.0613282 13.1759 -0.0600727 13.524 0.182102 13.6641L8.54909 18.4822C8.66214 18.5466 8.80119 18.5466 8.91298 18.4822Z" fill="url(#paint_linear_72)" fill-rule="nonzero" transform="matrix(0.49805,-0.867148,0.864895,0.501953,12.3127,16.3171)" />
				<path id="矢量 424" d="M8.91298 18.4822L12.7221 16.2893C13.8883 15.6178 14.6061 14.3764 14.6061 13.0334L14.6061 1.99961C14.6061 1.76298 14.5825 1.53006 14.539 1.3021C14.539 1.3021 14.4161 0.590967 14.0273 0C14.0273 0.00124041 14.0286 0.00370984 14.0298 0.00495025C14.2534 0.540169 14.3452 1.12369 14.3068 1.70227C14.2733 2.20775 14.1454 2.80739 13.856 3.48007C13.7305 3.74897 13.4374 4.27424 12.881 4.81943C10.6331 6.89458 4.34141 10.646 0.182102 13.0359C-0.0613282 13.1759 -0.0600727 13.524 0.182102 13.6641L8.54909 18.4822C8.66214 18.5466 8.80119 18.5466 8.91298 18.4822Z" fill="url(#paint_linear_73)" fill-rule="nonzero" transform="matrix(0.49805,-0.867148,0.864895,0.501953,12.3127,16.3171)" />
				<path id="矢量 425" d="M3.31974 7.63026C3.87744 7.08633 4.16923 6.5598 4.29471 6.29102C4.58411 5.61826 4.71199 5.01862 4.74553 4.51313C4.78408 3.93456 4.69214 3.35104 4.46856 2.81582C4.46856 2.81458 4.46856 2.81335 4.4673 2.81211C4.14562 2.30167 3.70234 1.86805 3.16083 1.55584L0.54652 0.0493137C0.30309 -0.0906759 0 0.0840094 0 0.363999L0 10.1193C1.39853 9.18013 2.57838 8.31416 3.31974 7.63026Z" fill="url(#paint_linear_74)" fill-rule="nonzero" transform="matrix(0.49805,-0.867148,0.864895,0.501953,14.6426,6.61548)" />
				<path id="矢量 426" d="M18.6044 2.69651L14.7953 0.503619C13.6292 -0.167873 12.1935 -0.167873 11.0273 0.503619L1.44936 6.01928C1.24319 6.13822 1.05318 6.2745 0.876819 6.42564C0.876819 6.42564 0.319182 6.88652 0 7.51837C0 7.51713 0.00248451 7.51589 0.00372674 7.51341C0.35644 7.05253 0.817205 6.68086 1.33882 6.42564C1.79461 6.2014 2.37833 6.01308 3.10736 5.92636C3.40294 5.90035 4.00652 5.89043 4.75666 6.09982C7.68269 7.00422 14.0849 10.5636 18.2393 12.9622C18.4827 13.1021 18.7845 12.9262 18.7845 12.6475L18.7845 3.01118C18.7845 2.88111 18.715 2.76093 18.6019 2.69651L18.6044 2.69651Z" fill="url(#paint_linear_75)" fill-rule="nonzero" transform="matrix(0.49805,-0.867148,0.864895,0.501953,0.216553,22.772)" />
				<path id="矢量 427" d="M18.6044 2.69651L14.7953 0.503619C13.6292 -0.167873 12.1935 -0.167873 11.0273 0.503619L1.44936 6.01928C1.24319 6.13822 1.05318 6.2745 0.876819 6.42564C0.876819 6.42564 0.319182 6.88652 0 7.51837C0 7.51713 0.00248451 7.51589 0.00372674 7.51341C0.35644 7.05253 0.817205 6.68086 1.33882 6.42564C1.79461 6.2014 2.37833 6.01308 3.10736 5.92636C3.40294 5.90035 4.00652 5.89043 4.75666 6.09982C7.68269 7.00422 14.0849 10.5636 18.2393 12.9622C18.4827 13.1021 18.7845 12.9262 18.7845 12.6475L18.7845 3.01118C18.7845 2.88111 18.715 2.76093 18.6019 2.69651L18.6044 2.69651Z" fill="url(#paint_linear_76)" fill-rule="nonzero" transform="matrix(0.49805,-0.867148,0.864895,0.501953,0.216553,22.772)" />
				<path id="矢量 428" d="M18.6044 2.69651L14.7953 0.503619C13.6292 -0.167873 12.1935 -0.167873 11.0273 0.503619L1.44936 6.01928C1.24319 6.13822 1.05318 6.2745 0.876819 6.42564C0.876819 6.42564 0.319182 6.88652 0 7.51837C0 7.51713 0.00248451 7.51589 0.00372674 7.51341C0.35644 7.05253 0.817205 6.68086 1.33882 6.42564C1.79461 6.2014 2.37833 6.01308 3.10736 5.92636C3.40294 5.90035 4.00652 5.89043 4.75666 6.09982C7.68269 7.00422 14.0849 10.5636 18.2393 12.9622C18.4827 13.1021 18.7845 12.9262 18.7845 12.6475L18.7845 3.01118C18.7845 2.88111 18.715 2.76093 18.6019 2.69651L18.6044 2.69651Z" fill="url(#paint_linear_77)" fill-rule="nonzero" transform="matrix(0.49805,-0.867148,0.864895,0.501953,0.216553,22.772)" />
				<path id="矢量 429" d="M5.19258 0.187072C4.44121 -0.0223095 3.83886 -0.0123981 3.54328 0.0136152C2.81425 0.100338 2.23054 0.288656 1.77474 0.512898C1.25312 0.769356 0.792363 1.13979 0.43965 1.60067C0.43965 1.60067 0.438409 1.60315 0.437167 1.60439C0.155245 2.13713 0 2.738 0 3.36117L0 6.37296C0 6.65301 0.303036 6.82768 0.546458 6.68771L9.01531 1.81005C7.50013 1.07165 6.15882 0.484404 5.19383 0.187072L5.19258 0.187072Z" fill="url(#paint_linear_78)" fill-rule="nonzero" transform="matrix(0.49805,-0.867148,0.864895,0.501953,5.11584,26.1165)" />
				<path id="矢量 430" d="M0 5.18108L0 9.56807C0 10.9111 0.717847 12.1524 1.88404 12.8239L11.4632 18.3409C11.6693 18.4598 11.883 18.5552 12.1028 18.632L12.1015 18.632C12.1015 18.632 12.7822 18.8823 13.49 18.8414C13.4876 18.8414 13.4864 18.8414 13.4839 18.8414C12.9076 18.7671 12.3549 18.5539 11.8718 18.2319C11.4495 17.9493 10.9937 17.5406 10.5541 16.9533C10.3839 16.7105 10.0734 16.1951 9.87971 15.4418C9.20285 12.4622 9.09107 5.15138 9.09603 0.362924C9.09603 0.0829915 8.793 -0.0905446 8.54958 0.0495362L0.182566 4.86644C0.0695488 4.93084 0 5.05101 0 5.18108Z" fill="url(#paint_linear_79)" fill-rule="nonzero" transform="matrix(0.49805,-0.867148,0.864895,0.501953,9.28931,28.5403)" />
				<path id="矢量 431" d="M0 5.18108L0 9.56807C0 10.9111 0.717847 12.1524 1.88404 12.8239L11.4632 18.3409C11.6693 18.4598 11.883 18.5552 12.1028 18.632L12.1015 18.632C12.1015 18.632 12.7822 18.8823 13.49 18.8414C13.4876 18.8414 13.4864 18.8414 13.4839 18.8414C12.9076 18.7671 12.3549 18.5539 11.8718 18.2319C11.4495 17.9493 10.9937 17.5406 10.5541 16.9533C10.3839 16.7105 10.0734 16.1951 9.87971 15.4418C9.20285 12.4622 9.09107 5.15138 9.09603 0.362924C9.09603 0.0829915 8.793 -0.0905446 8.54958 0.0495362L0.182566 4.86644C0.0695488 4.93084 0 5.05101 0 5.18108Z" fill="url(#paint_linear_80)" fill-rule="nonzero" transform="matrix(0.49805,-0.867148,0.864895,0.501953,9.28931,28.5403)" />
				<path id="矢量 432" d="M0.0410663 0.0210507C0.0273775 0.0135411 0.0136888 0.00739673 0 0C0.0136888 0.00739673 0.0273775 0.0147913 0.0410663 0.0210507Z" fill="url(#paint_linear_81)" fill-rule="nonzero" transform="matrix(0.49805,-0.867148,0.864895,0.501953,30.9531,27.7507)" />
				<path id="矢量 433" d="M8.46889 4.87755L0 0C0.116741 1.67744 0.278188 3.1307 0.501748 4.1132C0.695488 4.8664 1.00597 5.38303 1.17612 5.62461C1.61577 6.2119 2.07159 6.62077 2.49389 6.9032C2.97698 7.22535 3.52966 7.43849 4.10584 7.5128C4.1071 7.5128 4.10835 7.5128 4.10961 7.5128C4.71317 7.49049 5.31307 7.32322 5.85332 7.01222L8.46763 5.5057C8.71106 5.36573 8.71106 5.01638 8.46763 4.8763L8.46889 4.87755Z" fill="url(#paint_linear_82)" fill-rule="nonzero" transform="matrix(0.49805,-0.867148,0.864895,0.501953,23.757,26.0938)" />
			</g>
		</g>
		<path id="矢量 422" d="M91.7875 7.36166C91.8569 7.23882 92.0301 7.23882 92.0572 7.36166L92.0857 7.4917C92.244 8.21163 92.7132 8.78153 93.3811 9.06547L93.5017 9.11675C93.6157 9.16521 93.5855 9.33905 93.4549 9.38751L93.3166 9.43879C92.5502 9.72275 91.8843 10.2926 91.4768 11.0126L91.4032 11.1426C91.3337 11.2655 91.1605 11.2655 91.1337 11.1426L91.1049 11.0126C90.9467 10.2926 90.4777 9.72275 89.8098 9.43879L89.6892 9.38751C89.5752 9.33905 89.6051 9.16521 89.736 9.11675L89.8743 9.06547C90.6404 8.78153 91.3066 8.21163 91.7139 7.4917L91.7875 7.36166Z" fill="rgb(42,79,255)" fill-rule="nonzero" />
	</g>
</svg>
